<?xml version="1.0" encoding="UTF-8"?>
<svg id="Calque_1" xmlns="http://www.w3.org/2000/svg" version="1.1" viewBox="0 0 24.8 28.4">
  <!-- Generator: Adobe Illustrator 29.0.1, SVG Export Plug-In . SVG Version: 2.1.0 Build 192)  -->
  <defs>
    <style>
      .st0 {
        fill: #fff;
        fill-rule: evenodd;
      }
    </style>
  </defs>
  <path class="st0" d="M9.2,1.6c-1.7.9-3,1.6-3,1.7s4.1,2.1,4.2,2.1.5-.2,1.1-.5l.9-.5,1,.5,1,.5,1.7-.8c2.5-1.1,2.8-1.3,2.7-1.3-.1,0-1-.5-3.4-1.8-1.2-.5-2.3-1.2-2.6-1.3-.2-.1-.4-.2-.4-.2,0,0-1.5.7-3.2,1.6h0ZM1.8,5.4L0,6.4v4C0,12.6,0,14.4.2,14.4c0,0,.9-.4,1.9-.8l1.9-.8v-4.3l.8.5c.7.3,1.4.7,2.1,1.1l1.2.7.5-.2c.3-.2.7-.3,1-.5.3-.1.9-.4,1.4-.6s1-.5,1.1-.5c.1-.1-1-.7-4.1-2.2-2.2-1.3-4.2-2.3-4.3-2.3,0,0-.9.4-1.9.9h0ZM19.1,5.7c-1.2.5-2.2,1-2.2,1,0,0,.7.4,1.5.9.8.4,1.5.8,1.5.9,0,0-.7.4-1.6.8-.9.4-3.1,1.4-4.9,2.2l-6.1,2.7c-1.5.7-2.9,1.3-3.1,1.4-3,1.4-3.8,1.7-4,1.8C0,17.5,0,17.9,0,19.8v2.4l1.6.8,1.6.8,2.2-1c1.2-.5,2.2-1,2.2-1,0,0-.2-.2-.5-.3-.3-.2-.9-.5-1.3-.8-.4-.2-.8-.5-.9-.5s-.2-.1-.2-.1c0,0,1-.5,2.1-1,2.3-1,4-1.8,7.8-3.5,1.7-.8,3.4-1.5,5-2.3,1.5-.7,3.2-1.4,3.8-1.7l1.1-.5v-4.8l-1.6-.8c-.9-.5-1.6-.8-1.7-.8.2,0-.9.5-2.1,1h0ZM24.2,14.3c-.2.1-.7.3-1,.5-.3.1-1,.4-1.4.6l-.8.4v2.1c0,1.1-.1,2.1-.1,2.1-.1,0-1.6-.8-3.1-1.6-1.1-.6-1.2-.6-1.4-.5-.1.1-1,.5-2,.9-.9.4-1.7.8-1.8.8,0,0,1.8,1,4.2,2.3l4.2,2.2,1.8-.9c1-.5,1.8-1,1.9-1,.1-.1.1-8,0-7.9,0-.2-.3,0-.5,0h0ZM14.2,23.5c-.3.1-.6.3-.9.4-.9.4-.8.4-1.9-.1-.7-.4-1.1-.5-1.2-.4-.1,0-1,.4-2,.9-1.1.4-1.9.7-2,.7-.4,0,.3.4,3,1.8l3.2,1.6,1.3-.7c.7-.4,2.2-1.1,3.3-1.6,1.1-.5,1.9-1,1.9-1,0,0-.9-.5-2-1l-2-1-.7.4Z"/>
</svg>